<svg xmlns="http://www.w3.org/2000/svg" xmlns:xlink="http://www.w3.org/1999/xlink" style="isolation:isolate" viewBox="0 0 99.3 32"><defs><clipPath id="_clipPath_TKhM8rAdfEFUk97c9plPUi6RSEegORA2"><rect width="99.3" height="32"/></clipPath></defs><g clip-path="url(#_clipPath_TKhM8rAdfEFUk97c9plPUi6RSEegORA2)"><g><g><path d="M 3.454 2.184 L 95.846 2.184 C 97.752 2.184 99.3 3.732 99.3 5.638 L 99.3 26.362 C 99.3 28.268 97.752 29.816 95.846 29.816 L 3.454 29.816 C 1.548 29.816 0 28.268 0 26.362 L 0 5.638 C 0 3.732 1.548 2.184 3.454 2.184 Z" style="stroke:none;fill:#192428;stroke-miterlimit:10;"/><g><path d=" M 14.735 22.696 L 14.355 22.696 C 14.234 22.657 14.109 22.627 13.993 22.584 C 13.589 22.413 13.233 22.147 12.956 21.807 C 12.212 20.974 11.612 20.023 11.182 18.992 C 10.679 17.823 10.419 16.564 10.418 15.292 C 10.406 14.375 10.632 13.47 11.074 12.667 C 11.609 11.689 12.538 10.987 13.626 10.741 C 14.071 10.622 14.54 10.622 14.986 10.741 C 15.417 10.875 15.879 11.031 16.32 11.173 C 16.682 11.351 17.101 11.374 17.481 11.238 C 17.744 11.126 18.021 11.035 18.288 10.936 C 18.724 10.753 19.186 10.642 19.657 10.608 C 20.559 10.561 21.449 10.826 22.178 11.359 C 22.487 11.587 22.753 11.867 22.964 12.188 L 22.882 12.244 C 22.558 12.464 22.267 12.73 22.019 13.034 C 21.382 13.798 21.115 14.805 21.289 15.784 C 21.39 16.482 21.711 17.129 22.204 17.632 C 22.509 17.947 22.867 18.206 23.262 18.396 C 23.344 18.435 23.383 18.474 23.34 18.569 C 23.271 18.733 23.219 18.901 23.154 19.07 C 22.87 19.769 22.5 20.43 22.053 21.038 C 21.757 21.489 21.398 21.895 20.987 22.243 C 20.614 22.552 20.136 22.707 19.653 22.675 C 19.274 22.639 18.905 22.534 18.565 22.364 C 17.844 22.012 17.015 21.952 16.251 22.195 C 16.052 22.256 15.866 22.355 15.668 22.42 C 15.366 22.519 15.05 22.606 14.735 22.696 Z " fill="currentColor"/><path d=" M 20.054 6.756 C 20.072 7.008 20.072 7.26 20.054 7.512 C 19.93 8.405 19.466 9.215 18.759 9.774 C 18.245 10.221 17.578 10.451 16.898 10.418 C 16.857 10.145 16.865 9.867 16.924 9.597 C 17.115 8.664 17.671 7.846 18.47 7.326 C 18.887 7.043 19.362 6.855 19.86 6.778 L 19.929 6.756 L 20.054 6.756 Z " fill="currentColor"/></g><path d=" M 28.819 7.797 L 30.192 7.797 C 30.768 7.759 31.334 7.959 31.759 8.35 C 32.145 8.78 32.343 9.348 32.307 9.925 C 32.342 10.504 32.143 11.071 31.754 11.501 C 31.332 11.893 30.767 12.094 30.192 12.058 L 28.819 12.058 L 28.819 7.797 Z  M 30.174 11.73 C 30.65 11.764 31.119 11.6 31.469 11.277 C 31.786 10.899 31.941 10.412 31.901 9.921 Q 31.901 8.121 30.174 8.121 L 29.19 8.121 L 29.19 11.73 L 30.174 11.73 Z " fill="currentColor"/><path d=" M 33.624 11.92 C 33.418 11.793 33.253 11.608 33.149 11.389 C 32.923 10.877 32.923 10.295 33.149 9.783 C 33.253 9.564 33.418 9.38 33.624 9.252 C 34.063 9.002 34.601 9.002 35.04 9.252 C 35.247 9.378 35.412 9.563 35.515 9.783 C 35.736 10.295 35.736 10.877 35.515 11.389 C 35.412 11.609 35.247 11.794 35.04 11.92 C 34.601 12.17 34.063 12.17 33.624 11.92 Z  M 35.049 11.488 C 35.234 11.231 35.325 10.916 35.303 10.599 C 35.323 10.283 35.233 9.971 35.049 9.714 C 34.867 9.512 34.608 9.397 34.336 9.397 C 34.065 9.397 33.806 9.512 33.624 9.714 C 33.441 9.971 33.351 10.284 33.369 10.599 C 33.347 10.915 33.434 11.229 33.615 11.488 C 33.791 11.697 34.055 11.811 34.328 11.795 C 34.606 11.81 34.875 11.689 35.049 11.471 L 35.049 11.488 Z " fill="currentColor"/><path d=" M 40.428 9.135 L 40.808 9.135 L 39.72 12.067 L 39.34 12.067 L 38.477 9.615 L 37.587 12.067 L 37.207 12.067 L 36.141 9.135 L 36.534 9.135 L 37.397 11.631 L 38.3 9.135 L 38.662 9.135 L 39.526 11.631 L 40.428 9.135 Z " fill="currentColor"/><path d=" M 43.917 10.197 L 43.917 12.067 L 43.55 12.067 L 43.55 10.223 C 43.568 9.997 43.505 9.772 43.373 9.589 C 43.225 9.444 43.021 9.371 42.816 9.39 C 42.555 9.378 42.302 9.475 42.116 9.658 C 41.93 9.854 41.835 10.118 41.853 10.387 L 41.853 12.084 L 41.486 12.084 L 41.486 9.135 L 41.848 9.135 L 41.848 9.636 C 41.935 9.454 42.075 9.304 42.25 9.204 C 42.437 9.103 42.646 9.053 42.859 9.058 Q 43.917 9.062 43.917 10.197 Z " fill="currentColor"/><path d=" M 44.875 12.067 L 44.875 7.797 L 45.242 7.797 L 45.242 12.058 L 44.875 12.067 Z " fill="currentColor"/><path d=" M 46.675 11.92 C 46.469 11.793 46.304 11.608 46.2 11.389 C 45.975 10.877 45.975 10.295 46.2 9.783 C 46.304 9.564 46.469 9.38 46.675 9.252 C 47.114 9.002 47.652 9.002 48.091 9.252 C 48.298 9.378 48.464 9.563 48.566 9.783 C 48.788 10.295 48.788 10.877 48.566 11.389 C 48.464 11.609 48.298 11.794 48.091 11.92 C 47.652 12.17 47.114 12.17 46.675 11.92 Z  M 48.1 11.488 C 48.286 11.231 48.376 10.916 48.355 10.599 C 48.374 10.283 48.284 9.971 48.1 9.714 C 47.918 9.512 47.659 9.397 47.388 9.397 C 47.116 9.397 46.857 9.512 46.675 9.714 C 46.492 9.971 46.402 10.284 46.421 10.599 C 46.399 10.915 46.486 11.229 46.667 11.488 C 46.842 11.697 47.106 11.811 47.379 11.795 C 47.656 11.808 47.923 11.688 48.096 11.471 L 48.1 11.488 Z " fill="currentColor"/><path d=" M 51.468 9.338 C 51.661 9.574 51.755 9.876 51.731 10.18 L 51.731 12.067 L 51.377 12.067 L 51.377 11.54 C 51.301 11.718 51.173 11.869 51.01 11.972 C 50.842 12.072 50.649 12.123 50.453 12.119 C 50.274 12.12 50.096 12.08 49.935 12.002 C 49.784 11.931 49.656 11.821 49.564 11.683 C 49.479 11.554 49.432 11.405 49.43 11.251 C 49.418 11.066 49.478 10.883 49.598 10.741 C 49.754 10.6 49.95 10.509 50.159 10.482 C 50.52 10.423 50.886 10.397 51.252 10.405 L 51.377 10.405 L 51.377 10.18 C 51.394 9.972 51.336 9.765 51.213 9.597 C 51.077 9.463 50.889 9.395 50.699 9.412 C 50.527 9.411 50.355 9.435 50.19 9.485 C 50.011 9.543 49.841 9.626 49.685 9.731 L 49.546 9.446 C 49.708 9.331 49.887 9.244 50.077 9.187 C 50.273 9.125 50.477 9.093 50.682 9.092 C 50.966 9.063 51.25 9.152 51.468 9.338 Z  M 51.118 11.519 C 51.288 11.335 51.378 11.091 51.368 10.841 L 51.368 10.646 L 51.252 10.646 C 50.955 10.641 50.657 10.657 50.362 10.694 C 50.205 10.708 50.056 10.766 49.931 10.862 C 49.841 10.952 49.795 11.077 49.805 11.203 C 49.799 11.37 49.871 11.53 50 11.635 C 50.134 11.747 50.304 11.805 50.479 11.799 C 50.721 11.801 50.953 11.701 51.118 11.523 L 51.118 11.519 Z " fill="currentColor"/><path d=" M 55.189 7.797 L 55.189 12.058 L 54.831 12.058 L 54.831 11.497 C 54.748 11.678 54.61 11.829 54.438 11.929 C 54.25 12.036 54.037 12.089 53.821 12.084 C 53.58 12.089 53.342 12.023 53.138 11.894 C 52.938 11.77 52.776 11.592 52.672 11.38 C 52.558 11.127 52.502 10.851 52.508 10.573 C 52.502 10.299 52.558 10.028 52.672 9.779 C 52.873 9.33 53.325 9.047 53.816 9.062 C 54.032 9.057 54.246 9.11 54.434 9.217 C 54.606 9.317 54.743 9.468 54.827 9.649 L 54.827 7.797 L 55.189 7.797 Z  M 54.568 11.462 C 54.75 11.205 54.838 10.892 54.818 10.577 C 54.839 10.262 54.752 9.948 54.572 9.688 C 54.399 9.477 54.136 9.36 53.864 9.373 C 53.588 9.355 53.319 9.47 53.143 9.684 C 52.962 9.934 52.872 10.239 52.888 10.547 C 52.869 10.864 52.959 11.178 53.143 11.437 C 53.325 11.637 53.584 11.752 53.855 11.752 C 54.126 11.752 54.385 11.637 54.568 11.437 L 54.568 11.462 Z " fill="currentColor"/><path d=" M 58.19 9.135 L 59.053 9.135 L 59.053 9.433 L 58.19 9.433 L 58.19 12.067 L 57.823 12.067 L 57.823 9.433 L 57.244 9.433 L 57.244 9.135 L 57.823 9.135 L 57.823 8.989 C 57.799 8.676 57.899 8.366 58.099 8.125 C 58.333 7.907 58.643 7.791 58.963 7.801 L 59.174 7.801 L 59.204 8.103 L 58.928 8.103 C 58.722 8.102 58.525 8.186 58.384 8.337 C 58.255 8.514 58.192 8.731 58.207 8.95 L 58.19 9.135 Z " fill="currentColor"/><path d=" M 61.117 9.381 L 60.858 9.407 C 60.596 9.414 60.347 9.524 60.167 9.714 C 60.022 9.893 59.945 10.118 59.951 10.349 L 59.951 12.075 L 59.58 12.075 L 59.58 9.135 L 59.943 9.135 L 59.943 9.649 C 60.024 9.477 60.157 9.335 60.323 9.243 C 60.511 9.145 60.719 9.087 60.931 9.075 L 61.087 9.075 L 61.117 9.381 Z " fill="currentColor"/><path d=" M 62.028 11.92 C 61.822 11.793 61.657 11.608 61.553 11.389 C 61.327 10.877 61.327 10.295 61.553 9.783 C 61.657 9.564 61.822 9.38 62.028 9.252 C 62.467 9.002 63.005 9.002 63.444 9.252 C 63.651 9.378 63.816 9.563 63.919 9.783 C 64.14 10.295 64.14 10.877 63.919 11.389 C 63.816 11.609 63.651 11.794 63.444 11.92 C 63.005 12.17 62.467 12.17 62.028 11.92 L 62.028 11.92 Z  M 63.453 11.488 C 63.639 11.231 63.729 10.916 63.707 10.599 C 63.735 10.279 63.649 9.96 63.466 9.697 C 63.284 9.495 63.025 9.379 62.753 9.379 C 62.482 9.379 62.223 9.495 62.041 9.697 C 61.858 9.954 61.768 10.266 61.786 10.582 C 61.765 10.898 61.851 11.211 62.032 11.471 C 62.208 11.68 62.472 11.794 62.745 11.778 C 63.02 11.797 63.288 11.683 63.466 11.471 L 63.453 11.488 Z " fill="currentColor"/><path d=" M 69.005 10.197 L 69.005 12.067 L 68.647 12.067 L 68.647 10.223 C 68.666 9.999 68.612 9.775 68.491 9.584 C 68.365 9.443 68.179 9.37 67.99 9.386 C 67.752 9.376 67.522 9.474 67.364 9.653 C 67.2 9.857 67.117 10.114 67.131 10.374 L 67.131 12.067 L 66.764 12.067 L 66.764 10.223 C 66.784 9.999 66.729 9.775 66.609 9.584 C 66.482 9.443 66.297 9.37 66.108 9.386 C 65.87 9.376 65.639 9.474 65.482 9.653 C 65.317 9.857 65.234 10.114 65.249 10.374 L 65.249 12.067 L 64.882 12.067 L 64.882 9.135 L 65.244 9.135 L 65.244 9.619 C 65.318 9.44 65.447 9.289 65.611 9.187 C 65.779 9.09 65.97 9.041 66.164 9.045 C 66.563 9.005 66.936 9.244 67.066 9.623 C 67.148 9.443 67.284 9.292 67.455 9.191 C 67.637 9.086 67.845 9.032 68.055 9.036 Q 69.005 9.062 69.005 10.197 Z " fill="currentColor"/><path d=" M 72.934 11.773 L 72.934 12.08 C 72.839 12.086 72.744 12.086 72.649 12.08 C 72.372 12.101 72.099 12.003 71.898 11.812 C 71.72 11.61 71.628 11.347 71.643 11.078 L 71.643 9.429 L 71.064 9.429 L 71.064 9.135 L 71.643 9.135 L 71.643 8.229 L 72.01 8.229 L 72.01 9.135 L 72.873 9.135 L 72.873 9.433 L 72.01 9.433 L 72.01 11.052 C 71.995 11.253 72.057 11.452 72.182 11.609 C 72.316 11.741 72.5 11.809 72.688 11.795 C 72.77 11.793 72.852 11.786 72.934 11.773 Z " fill="currentColor"/><path d=" M 75.891 10.197 L 75.891 12.067 L 75.524 12.067 L 75.524 10.223 C 75.543 9.997 75.48 9.772 75.347 9.589 C 75.2 9.444 74.996 9.371 74.79 9.39 C 74.53 9.378 74.277 9.475 74.091 9.658 C 73.905 9.854 73.81 10.118 73.827 10.387 L 73.827 12.084 L 73.46 12.084 L 73.46 7.797 L 73.827 7.797 L 73.827 9.615 C 73.913 9.432 74.053 9.281 74.229 9.183 C 74.413 9.083 74.62 9.033 74.829 9.036 Q 75.891 9.062 75.891 10.197 Z " fill="currentColor"/><path d=" M 79.263 10.646 L 77.044 10.646 C 77.029 10.96 77.132 11.268 77.333 11.51 C 77.536 11.714 77.818 11.821 78.106 11.803 C 78.46 11.804 78.803 11.675 79.069 11.441 L 79.215 11.73 C 79.073 11.859 78.905 11.957 78.723 12.019 C 78.527 12.091 78.319 12.128 78.11 12.127 C 77.716 12.148 77.332 12 77.052 11.721 C 76.781 11.416 76.641 11.016 76.664 10.608 C 76.658 10.33 76.717 10.055 76.837 9.805 C 76.943 9.582 77.111 9.395 77.32 9.265 C 77.536 9.136 77.785 9.07 78.037 9.075 C 78.379 9.057 78.711 9.195 78.939 9.451 C 79.173 9.747 79.29 10.119 79.267 10.495 L 79.263 10.646 Z  M 77.359 9.632 C 77.178 9.838 77.071 10.1 77.057 10.374 L 78.926 10.374 C 78.936 10.105 78.851 9.84 78.684 9.628 C 78.519 9.447 78.281 9.35 78.037 9.364 C 77.784 9.352 77.537 9.448 77.359 9.628 L 77.359 9.632 Z " fill="currentColor"/><path d=" M 34.565 22.429 L 33.87 20.814 L 30.472 20.814 L 29.79 22.429 L 28.154 22.429 L 31.517 15.137 L 32.812 15.137 L 36.171 22.442 L 34.565 22.429 Z  M 30.999 19.588 L 33.339 19.588 L 32.173 16.863 L 30.999 19.588 Z " fill="currentColor"/><path d=" M 40.963 17.55 C 41.313 17.783 41.589 18.109 41.762 18.491 C 41.959 18.929 42.056 19.405 42.047 19.886 C 42.057 20.362 41.959 20.834 41.762 21.267 C 41.419 22.04 40.643 22.53 39.798 22.506 C 39.472 22.513 39.149 22.442 38.857 22.299 C 38.588 22.167 38.363 21.96 38.209 21.703 L 38.209 24.294 L 36.65 24.294 L 36.65 17.338 L 38.196 17.338 L 38.196 18.055 C 38.352 17.789 38.581 17.575 38.857 17.438 C 39.151 17.286 39.479 17.209 39.811 17.213 C 40.22 17.209 40.621 17.327 40.963 17.55 Z  M 40.191 20.948 C 40.411 20.639 40.517 20.264 40.493 19.886 C 40.516 19.498 40.41 19.114 40.191 18.793 C 39.985 18.529 39.662 18.383 39.327 18.405 C 38.995 18.383 38.672 18.525 38.464 18.785 C 38.245 19.102 38.138 19.484 38.161 19.868 C 38.138 20.249 38.245 20.627 38.464 20.939 C 38.672 21.199 38.995 21.341 39.327 21.319 C 39.657 21.341 39.978 21.205 40.191 20.952 L 40.191 20.948 Z " fill="currentColor"/><path d=" M 47.314 17.55 C 47.664 17.783 47.94 18.109 48.113 18.491 C 48.31 18.929 48.407 19.405 48.398 19.886 C 48.408 20.362 48.31 20.834 48.113 21.267 C 47.77 22.04 46.994 22.53 46.149 22.506 C 45.824 22.511 45.503 22.438 45.212 22.295 C 44.943 22.163 44.718 21.956 44.564 21.699 L 44.564 24.289 L 43.001 24.289 L 43.001 17.338 L 44.547 17.338 L 44.547 18.055 C 44.7 17.791 44.926 17.576 45.199 17.438 C 45.494 17.286 45.821 17.209 46.153 17.213 C 46.565 17.208 46.969 17.325 47.314 17.55 Z  M 46.541 20.948 C 46.762 20.639 46.868 20.264 46.844 19.886 C 46.867 19.498 46.76 19.114 46.541 18.793 C 46.336 18.529 46.012 18.383 45.678 18.405 C 45.345 18.383 45.023 18.525 44.815 18.785 C 44.596 19.102 44.489 19.484 44.512 19.868 C 44.489 20.249 44.596 20.627 44.815 20.939 C 45.023 21.199 45.345 21.341 45.678 21.319 C 46.009 21.343 46.332 21.206 46.546 20.952 L 46.541 20.948 Z " fill="currentColor"/><path d=" M 53.333 22.299 C 52.866 22.178 52.426 21.968 52.038 21.682 L 52.556 20.533 C 53.251 21.02 54.081 21.277 54.93 21.267 C 55.295 21.288 55.659 21.21 55.984 21.043 C 56.212 20.922 56.354 20.684 56.351 20.425 C 56.352 20.193 56.221 19.981 56.014 19.877 C 55.635 19.694 55.233 19.564 54.818 19.493 C 54.288 19.398 53.772 19.238 53.281 19.018 C 52.944 18.869 52.654 18.63 52.443 18.327 C 52.259 18.023 52.168 17.672 52.18 17.317 C 52.173 16.893 52.302 16.479 52.547 16.134 C 52.811 15.775 53.167 15.494 53.579 15.322 C 54.063 15.118 54.586 15.018 55.112 15.029 C 55.62 15.027 56.125 15.105 56.61 15.257 C 57.03 15.378 57.42 15.587 57.754 15.87 L 57.236 17.019 C 56.629 16.551 55.886 16.293 55.12 16.285 C 54.773 16.266 54.427 16.35 54.127 16.527 C 53.896 16.669 53.758 16.924 53.764 17.196 C 53.758 17.345 53.807 17.491 53.903 17.606 C 54.033 17.737 54.193 17.834 54.369 17.891 C 54.672 17.998 54.982 18.085 55.297 18.15 C 56.021 18.269 56.712 18.541 57.322 18.949 C 57.733 19.272 57.962 19.774 57.939 20.296 C 57.963 20.939 57.663 21.551 57.141 21.928 C 56.482 22.361 55.7 22.57 54.913 22.524 C 54.378 22.523 53.846 22.448 53.333 22.299 Z " fill="currentColor"/><path d=" M 62.201 21.328 L 62.119 22.476 C 61.92 22.504 61.719 22.519 61.519 22.519 C 60.91 22.572 60.304 22.389 59.826 22.01 C 59.44 21.592 59.246 21.032 59.291 20.464 L 59.291 18.508 L 58.328 18.508 L 58.328 17.338 L 59.291 17.338 L 59.291 15.849 L 60.875 15.849 L 60.875 17.338 L 62.17 17.338 L 62.17 18.508 L 60.875 18.508 L 60.875 20.447 Q 60.875 21.358 61.739 21.358 C 61.893 21.356 62.047 21.346 62.201 21.328 Z " fill="currentColor"/><path d=" M 63.919 22.183 C 63.521 21.974 63.194 21.652 62.978 21.259 C 62.536 20.375 62.536 19.336 62.978 18.452 C 63.194 18.061 63.522 17.742 63.919 17.537 C 64.817 17.108 65.861 17.108 66.76 17.537 C 67.157 17.742 67.485 18.061 67.701 18.452 C 68.142 19.336 68.142 20.375 67.701 21.259 C 67.485 21.652 67.157 21.974 66.76 22.183 C 65.863 22.618 64.816 22.618 63.919 22.183 Z  M 66.488 19.855 C 66.516 19.467 66.413 19.081 66.194 18.759 C 65.981 18.506 65.66 18.371 65.331 18.396 Q 64.191 18.396 64.191 19.855 Q 64.191 21.315 65.331 21.315 Q 66.488 21.319 66.488 19.855 Z " fill="currentColor"/><path d=" M 72.623 18.5 L 71.759 18.595 C 71.416 18.597 71.086 18.728 70.835 18.962 C 70.649 19.19 70.553 19.479 70.568 19.773 L 70.568 22.424 L 69.005 22.424 L 69.005 17.338 L 70.507 17.338 L 70.507 18.202 C 70.795 17.593 71.419 17.214 72.092 17.239 L 72.549 17.209 L 72.623 18.5 Z " fill="currentColor"/><path d=" M 77.618 20.179 L 74.302 20.179 C 74.315 20.515 74.457 20.832 74.7 21.064 C 74.966 21.264 75.295 21.362 75.628 21.341 C 75.894 21.34 76.157 21.296 76.409 21.211 C 76.663 21.127 76.902 21.003 77.117 20.844 L 77.549 21.889 C 77.277 22.095 76.97 22.25 76.642 22.347 C 76.296 22.455 75.935 22.51 75.572 22.511 C 74.83 22.552 74.101 22.297 73.547 21.803 C 73.036 21.299 72.762 20.603 72.791 19.886 C 72.781 19.407 72.891 18.934 73.111 18.508 C 73.314 18.119 73.622 17.795 74 17.572 C 74.393 17.344 74.841 17.227 75.295 17.235 C 75.935 17.204 76.555 17.459 76.988 17.93 C 77.428 18.457 77.652 19.131 77.614 19.817 L 77.618 20.179 Z  M 74.63 18.59 C 74.436 18.823 74.321 19.112 74.302 19.415 L 76.301 19.415 C 76.303 19.118 76.208 18.828 76.029 18.59 C 75.853 18.397 75.599 18.294 75.338 18.31 C 75.073 18.297 74.815 18.399 74.63 18.59 Z " fill="currentColor"/></g></g></g></svg>